<?xml version="1.0" encoding="UTF-8"?>
<svg xmlns="http://www.w3.org/2000/svg" xmlns:xlink="http://www.w3.org/1999/xlink" width="512" height="512" viewBox="0 0 54 60" version="1.1"><!-- Generator: Sketch 51.3 (57544) - http://www.bohemiancoding.com/sketch --><title>003 - Hamsa</title><desc>Created with Sketch.</desc><defs/><g id="Page-1" stroke="none" stroke-width="1" fill="none" fill-rule="evenodd"><g id="003---Hamsa" fill="#000000" fill-rule="nonzero"><path d="M1,28.89 C3.421,28.89 5.144,29.466 6.119,30.603 C6.8161766,31.4859195 7.13769796,32.6078315 7.014,33.726 C7.00433378,33.7801243 6.99964752,33.8350205 7,33.89 L7,40 C7,51.045695 15.954305,60 27,60 C38.045695,60 47,51.045695 47,40 L47,33.89 C46.9996852,33.8370796 46.9953393,33.7842601 46.987,33.732 C46.861399,32.6119742 47.1826459,31.4876101 47.881,30.603 C48.856,29.466 50.581,28.89 53,28.89 C53.3650826,28.8901525 53.7012343,28.6913375 53.8769586,28.3713276 C54.052683,28.0513178 54.0400494,27.6609772 53.844,27.353 C53.705,27.135 50.384,22.001 45.744,22.001 C43.4987516,22.0978812 41.404769,23.1598191 40,24.914 L40,10 C40,8.10613971 38.9299881,6.37482412 37.236068,5.52786405 C35.5421478,4.68090397 33.5150882,4.86368382 32,6 L32,5 C32,2.23857625 29.7614237,1.69088438e-16 27,0 C24.2385763,-1.69088438e-16 22,2.23857625 22,5 L22,6 C20.4849118,4.86368382 18.4578522,4.68090397 16.763932,5.52786405 C15.0700119,6.37482412 14,8.10613971 14,10 L14,24.914 C12.5961012,23.1602136 10.5033481,22.0979801 8.259,22 C3.616,22 0.295,27.134 0.159,27.352 C-0.0373020454,27.6595669 -0.0505052841,28.0496363 0.124549979,28.3697731 C0.299605243,28.6899098 0.63512828,28.8892908 1,28.89 Z M8.259,24 C10.303,24 12.288,25.489 14.159,28.426 C14.3985428,28.7983711 14.8544379,28.968889 15.2795519,28.8451187 C15.7046659,28.7213484 15.9977793,28.3327596 16,27.89 L16,10 C16,8.92820321 16.5717967,7.93782212 17.5,7.40192371 C18.4282032,6.86602531 19.5717968,6.86602531 20.5,7.40192371 C21.4282033,7.93782212 22,8.92820321 22,10 L22,27 C22,27.5522847 22.4477153,28 23,28 C23.5522847,28 24,27.5522847 24,27 L24,5 C24,3.34314575 25.3431458,2 27,2 C28.6568542,2 30,3.34314575 30,5 L30,27 C30,27.5522847 30.4477153,28 31,28 C31.5522847,28 32,27.5522847 32,27 L32,10 C32,8.34314575 33.3431458,7 35,7 C36.6568542,7 38,8.34314575 38,10 L38,27.89 C37.9997077,28.3348421 38.2932994,28.7263958 38.7203997,28.8507737 C39.1475,28.9751516 39.6054121,28.8024469 39.844,28.427 C41.711,25.493 43.693,24 45.735,24 L45.741,24 C47.958,24 49.904,25.719 51.055,27.015 C49.2489882,27.1659986 47.5660262,27.991414 46.341,29.327 C45.2918254,30.6287737 44.8087465,32.2970351 45,33.958 L45,40 C45,49.9411255 36.9411255,58 27,58 C17.0588745,58 9,49.9411255 9,40 L9,33.958 C9.1909779,32.2973669 8.70791455,30.6295195 7.659,29.328 C6.43308531,27.9912265 4.74854422,27.16538 2.941,27.015 C4.088,25.72 6.031,24 8.259,24 Z" id="Shape"/><path d="M36.532,49.255 C33.6470409,50.9824325 30.3618298,51.9284989 27,52 C23.6649256,51.930245 20.4047579,50.9979811 17.537,49.294 C17.2252858,49.1191185 16.8439518,49.1238189 16.5366428,49.3063306 C16.2293339,49.4888423 16.0427375,49.8214374 16.0471428,50.1788306 C16.0515481,50.5362238 16.2462858,50.8641185 16.558,51.039 C19.7245809,52.9111295 23.3220417,53.9312484 27,54 C30.7067443,53.9305359 34.3314453,52.896581 37.517,51 C37.99804,50.7279998 38.1675002,50.11754 37.8955,49.6365 C37.6234997,49.15546 37.01304,48.9859998 36.532,49.258 L36.532,49.255 Z" id="Shape"/><path d="M17.534,34.707 C20.4028146,33.0028027 23.6639162,32.0702227 27,32 C30.3465515,32.0706698 33.6174894,33.0085707 36.493,34.722 C36.6423776,34.8067778 36.8112418,34.8512339 36.983,34.851 C37.4376054,34.8513262 37.8352257,34.5449742 37.9508388,34.1053154 C38.0664519,33.6656567 37.8709616,33.2033398 37.475,32.98 C30.468,29.03 23.563,29.024 16.554,32.964 C16.2350587,33.1351476 16.033499,33.4652857 16.026997,33.8271874 C16.020495,34.1890891 16.2100658,34.5262543 16.5226536,34.708748 C16.8352414,34.8912418 17.2220449,34.8905732 17.534,34.707 Z" id="Shape"/><path d="M26.165,49.956 C26.720121,50.0146668 27.279879,50.0146668 27.835,49.956 C35.519,49.498 41.486,42.956 41.745,42.667 C42.084923,42.2872964 42.084923,41.7127036 41.745,41.333 C41.486,41.044 35.519,34.502 27.835,34.044 C27.279879,33.9853332 26.720121,33.9853332 26.165,34.044 C18.481,34.502 12.514,41.044 12.255,41.333 C11.915077,41.7127036 11.915077,42.2872964 12.255,42.667 C12.514,42.956 18.481,49.5 26.165,49.956 Z M21,42 C21,38.6862915 23.6862915,36 27,36 C30.3137085,36 33,38.6862915 33,42 C33,45.3137085 30.3137085,48 27,48 C23.6876624,47.9966926 21.0033074,45.3123376 21,42 Z M33.8,46.192 C35.3960889,43.627386 35.3960889,40.378614 33.8,37.814 C35.9200214,38.9305157 37.8724769,40.33965 39.6,42 C37.8743771,43.6642766 35.9216335,45.0756388 33.8,46.192 Z M20.2,37.808 C18.6039111,40.372614 18.6039111,43.621386 20.2,46.186 C18.0799786,45.0694843 16.1275231,43.66035 14.4,42 C16.1256229,40.3357234 18.0783665,38.9243612 20.2,37.808 Z" id="Shape"/><path d="M27,38 C24.790861,38 23,39.790861 23,42 C23,44.209139 24.790861,46 27,46 C29.209139,46 31,44.209139 31,42 C31,39.790861 29.209139,38 27,38 Z M27,44 C25.8954305,44 25,43.1045695 25,42 C25,40.8954305 25.8954305,40 27,40 C28.1045695,40 29,40.8954305 29,42 C29,43.1045695 28.1045695,44 27,44 Z" id="Shape"/></g></g></svg>
